<?xml version="1.0" encoding="UTF-8"?><svg id="Layer_1" xmlns="http://www.w3.org/2000/svg" viewBox="0 0 283.75 133.3"><defs><style>.cls-1{fill:#fff;}.cls-2{fill:#d6d6d6;}</style></defs><path class="cls-2" d="m151.9,47.38c-1.15.1-2.3-.04-3.46.21-.82.18-1.16.47-1.35,1.27-.61,2.66-1.32,5.29-1.94,7.95-.25,1.05-.7,1.5-1.89,1.51-2.02.03-4.08.17-6.05.6-1.36.29-2.31-.05-3.31-.82-.64-.49-1.44-1.09-1.3.52.04.51-.21.73-.74.78-1.79.16-3.6.26-5.37.57-2.29.4-3.9-.81-5.53-2.05-2.35-1.79-2.55-1.85-3.12.95-.4,1.97-1.69,2.05-3.07,2.15-1.15.09-2.31.1-3.45.32-1.99.4-3.43-.63-4.9-1.74-1.47-1.11-3-2.13-4.6-3.26-.52,1.59.04,2.98.09,4.37.04.98-.11,1.46-1.32,1.52-2.34.11-4.68.49-7.01.77-.68.08-1.27-.11-1.83-.5-1.98-1.37-3.99-2.71-5.96-4.08-.5-.35-.9-.62-1.41.02-2.83,3.54-6.67,5.37-11,6.24-5.9,1.18-11.15-.73-16.2-3.55-2.86-1.6-5.16-3.83-7.44-6.53,0,5.3,0,10.29,0,15.29-4.47,1.71-8.22,4.46-11.44,7.97-1.94-1.77-4.18-3.13-6.27-4.69-.52-.39-1.11-.67-1.3-1.36,2.85-.26,5.69-.54,8.54-.77,1.09-.08,1.53-.4,1.53-1.66-.06-16.55-.04-33.09-.04-49.64,0-.56.04-1.11.07-1.67,1.47.32,2.3,1.59,3.5,2.33,1.36.84,2.42,2.12,3.96,2.7-3.97,7.07-5.68,14.5-3.23,22.46,1.43,4.66,4.41,8.24,8.57,10.76,3.33,2.02,6.84,2.93,10.82,2,6.8-1.59,11.9-5.15,14.28-11.88,2.18-6.17,1.87-12.46.33-18.72-1.27-5.18-4.24-8.99-9.27-11.04.44-.44.93-.24,1.42-.12,4.59,1.1,8.39,3.45,11.34,7.15.21.26.44.47.79.51.02.51.07,1.02.07,1.53,0,9.81.04,19.62-.04,29.42-.01,1.39.58,1.63,1.61,1.41,2.31-.51,4.69-.39,7.01-.77.82-.13.97-.38.93-1.12-.1-2.18-.17-4.37-.18-6.55-.02-5.04,0-10.08,0-14.82-.04-.1.07.14.16.39,2.25,6.62,4.52,13.24,6.72,19.88.34,1.02.7,1.56,1.91,1.38,1.92-.28,3.86-.43,5.79-.56.76-.05,1.1-.27,1.32-1.06,1.15-4.2,2.39-8.37,3.61-12.55.84-2.91,1.69-5.82,2.54-8.72.2.51.2.97.2,1.44,0,6.23.03,12.46-.04,18.69-.01,1.22.34,1.45,1.47,1.37,1.98-.15,3.94-.4,5.92-.5,1.18-.06,1.31-.52,1.31-1.52-.03-9.3-.02-18.59-.02-27.89,0-4.37.03-8.74.05-13.1,2.26,1.26,4.06,3.2,6.3,4.46,2.03,1.15,2.54,2.7,2.38,4.9-.19,2.68-.06,5.38-.03,8.07,0,.45-.27,1.07.48,1.26-.04.22-.07.45-.14.67-2.09,7.25-4.16,14.51-6.3,21.75-.3,1-.06,1.1.82,1,2.48-.29,4.96-.6,7.45-.75.99-.06,1.37-.43,1.57-1.33.65-2.79,1.36-5.58,2.08-8.36.1-.38-.02-.96.71-1.01,3.4-.24,6.8-.52,10.19-.8.55-.05.77.27.89.67.62,2.09,1.21,4.19,1.8,6.29Z"/><path class="cls-1" d="m40.84,18.09c-.02.56-.07,1.11-.07,1.67,0,16.55-.02,33.09.04,49.64,0,1.26-.44,1.58-1.53,1.66-2.85.22-5.69.51-8.54.77-.8.1-.98-.59-1.29-1.06-3.18-4.82-6.36-9.64-9.53-14.47-2.92-4.53-5.83-9.05-8.75-13.58-.31.61-.31,1.11-.31,1.6,0,8.82,0,17.64,0,26.46,0,3.02,0,2.93-3.02,3.19-2.32.19-4.68.18-6.96.8-.41,0-.88.1-.85-.57.01-.28,0-.56,0-.84C.03,56.55.04,39.74,0,22.93c0-1.21.29-1.52,1.51-1.57,2.37-.09,4.73-.48,7.11-.67.87-.07,1.86-.49,2.55.49.12.25.21.51.35.74,5.9,9.48,11.8,18.96,17.72,28.43.15.25.21.62.41.64v-8.05c-.1-5.61-.08-11.23-.36-16.83-.1-2.03-.13-4.06-.2-6.09-.02-.67,0-1.01.88-1.15,2.61-.4,5.22-.73,7.85-.77,1-.02,2.03-.85,3.03-.02Z"/><path class="cls-1" d="m38.3,77.87c3.22-3.51,6.96-6.26,11.44-7.97,2.71-.98,5.51-1.67,8.38-1.8,4.21-.2,8.13.88,11.62,3.34,2.42,2.17,4.29,4.73,5.59,7.73.36.84.31,1.3-.59,1.67-3.08,1.28-6.13,2.61-9.19,3.94-.65.28-.92.28-1.07-.57-.26-1.4-1.03-2.51-2.25-3.36-2.94-2.03-6.13-1.7-9.24-.83-3.89,1.1-6.29,3.97-7.96,7.55-1.71,3.67-1.96,7.55-1.71,11.48.33,5.19,1.73,9.95,5.6,13.74,1.6,1.56,3.35,2.34,5.56,2.1,2.87-.07,5.47-1.1,8.03-2.27,2.19-1.01,2.17-1.04,1.98-3.56.02-1.95.03-3.89.08-5.84.02-.65-.17-.93-.87-.84-2.52.3-5.04.57-7.55.85-.51-.04-.53-.38-.53-.78,0-2.74.01-5.47,0-8.21,0-.59.2-.8.8-.84,2.34-.15,4.67-.33,7-.54,2.56-.24,5.12-.69,7.68-.74,1.56-.03,3.12-.75,4.68-.1-.02,7.72-.11,15.44-.02,23.15.02,1.85-.57,3.22-1.83,4.43-6.63,6.32-14.66,7.94-23.45,6.86-3.06-.38-5.7-1.87-8.25-3.51-3.63-2.98-6.19-6.76-7.91-11.07-1.23-3.1-2.05-6.34-2.47-9.69-.23-1.8-.22-3.59-.25-5.38-.1-6.78,2.06-12.8,6.16-18.16.2-.26.37-.53.56-.79Z"/><path class="cls-1" d="m123.7,10.56c-.02,4.37-.05,8.74-.05,13.1,0,9.3-.01,18.59.02,27.89,0,.99-.13,1.45-1.31,1.52-1.97.1-3.94.36-5.92.5-1.14.08-1.49-.15-1.47-1.37.07-6.23.04-12.46.04-18.69,0-.46,0-.92-.2-1.44-.85,2.91-1.7,5.82-2.54,8.72-1.21,4.18-2.45,8.35-3.61,12.55-.22.79-.56,1.01-1.32,1.06-1.94.13-3.88.27-5.79.56-1.21.18-1.57-.36-1.91-1.38-2.2-6.64-4.47-13.26-6.72-19.88-.08-.25-.2-.48-.16-.39,0,4.74-.02,9.78,0,14.82.01,2.18.08,4.37.18,6.55.03.74-.12.98-.93,1.12-2.33.38-4.7.26-7.01.77-1.03.23-1.62-.01-1.61-1.41.08-9.81.04-19.62.04-29.42,0-.51-.04-1.02-.07-1.53.02-3.02.07-6.03.03-9.05-.01-.92.2-1.25,1.2-1.31,2.89-.19,5.77-.53,8.66-.79.49-.04,1.03-.25,1.42.27,1.4,3.82,2.78,7.65,4.19,11.46,1.67,4.5,3.37,8.98,5.15,13.73.39-1.28.74-2.28,1-3.31.37-1.52,1.2-2.92,1.11-4.55,1.04-1.36,1.08-3.08,1.6-4.61,1.15-3.35,2.07-6.77,3.09-10.16.33-1.1.82-2.17,1-3.29.17-1.08.84-1.4,1.69-1.44,3.17-.14,6.32-.56,9.47-.89.27-.03.57-.04.72.27Z"/><path class="cls-2" d="m213.32,2.46c2.44,1.44,4.67,3.16,6.9,4.89.62.48,1.24.76,2.02.72-.02.14,0,.3-.07.41-3.54,5.59-4.18,11.8-3.53,18.15.38,3.73,1.79,7.24,3.84,10.44-.47.41-.28.95-.28,1.44-.02,3.72-.05,7.44.02,11.16.02,1.22-.26,1.61-1.59,1.7-2.26.15-4.59.08-6.77.95-.5.2-.89-.16-1.26-.42-2.43-1.7-4.87-3.38-7.26-5.13-.73-.53-1.1-.38-1.55.29-2.4,3.65-5.69,6.07-10.03,6.85-1.5.27-3.05.33-4.56.52-2.81.35-5.63.3-8.43.67-1.97.26-3.95.39-5.93.58-.38.04-.59-.25-.85-.42-.69-.45-1.36-.92-2.02-1.36-.33.22-.19.44-.1.64.41.92.2,1.21-.89,1.28-2.58.15-5.14.48-7.71.76-.8.09-1.47,0-2.19-.56-2.31-1.78-4.71-3.44-7.08-5.14-.23-.17-.46-.31-.49-.63,2.79-.29,5.58-.68,8.38-.84,1.35-.08,1.3-.56.94-1.55-.89-2.44-1.75-4.9-2.59-7.36-2.04-5.99-4.06-11.98-6.09-17.98-1.6-4.73-3.2-9.47-4.8-14.2,1.77.45,2.85,1.96,4.33,2.85.63.38,1.13,1,1.78,1.31,2.29,1.1,3.17,3.14,3.9,5.38,1.83,5.57,3.74,11.12,5.63,16.67.04.12.17.21.26.31.02,4.28.09,8.56.02,12.83-.02,1.24.41,1.53,1.52,1.4,4.16-.49,8.33-.87,12.51-1.14,1.24-.08,2.54-.14,3.68-.56,6.54-2.42,11.41-6.68,14.05-13.24.9-2.24,1.24-4.6,1.48-7.03.53-5.29-.4-10.14-3.38-14.56-1.9-2.82-4.65-4.62-7.58-6.18.59-.57,1.23-.08,1.67.11,2.11.92,4.49,1.3,6.33,2.71,2.52,1.93,5.12,3.81,7.01,6.44.3.42.43,1.09,1.15,1.08.01.23.04.46.04.69,0,8.97.03,17.94-.04,26.91-.01,1.39.48,1.49,1.6,1.33,2.24-.31,4.48-.57,6.73-.73,1.04-.07,1.31-.47,1.31-1.46-.04-13.66-.05-27.33-.06-40.99Z"/><path class="cls-1" d="m187.59,6.36c2.93,1.56,5.68,3.36,7.58,6.18,2.98,4.42,3.91,9.27,3.38,14.56-.24,2.43-.58,4.78-1.48,7.03-2.65,6.56-7.52,10.82-14.05,13.24-1.14.42-2.44.48-3.68.56-4.18.28-8.35.65-12.51,1.14-1.11.13-1.54-.16-1.52-1.4.06-4.28,0-8.55-.02-12.83.02-8.96.04-17.92.05-26.88,0-1.84,0-1.77,1.88-1.89,3.85-.24,7.7-.55,11.55-.84,3.02-.23,5.98,0,8.83,1.12Zm.41,15.03c-.61-2.84-2.19-4.97-4.71-6.42-.68-.39-1.35-.52-2.13-.45-2.16.2-4.33.39-6.5.51-.76.04-1.05.25-1.04,1.05.03,7.07.03,14.14,0,21.2,0,.76.27.98.97.9,1.51-.17,3.03-.24,4.53-.48,1.25-.2,2.61.27,3.74-.62,2.04-.88,3.29-2.54,4.09-4.49,1.49-3.61,1.92-7.36,1.04-11.21Z"/><path class="cls-1" d="m69.81,16.69c5.03,2.06,7.99,5.87,9.27,11.04,1.54,6.26,1.85,12.55-.33,18.72-2.39,6.74-7.48,10.29-14.28,11.88-3.98.93-7.49.02-10.82-2-4.17-2.52-7.14-6.1-8.57-10.76-2.45-7.96-.74-15.39,3.23-22.46,3.2-4.24,7.43-6.46,12.73-7.05,3.03-.34,5.89-.04,8.79.63Zm-.56,14.24c-.4-2.7-1.41-5.21-4.17-6.05-2.76-.84-5.71-.95-8.13,1.24-1.31,1.18-2.02,2.73-2.54,4.4-1.03,3.3-.87,6.7-.77,10.08.06,2.2.63,4.29,1.67,6.23,1.59,2.97,4.26,4,7.53,3.01,3.72-.91,5.56-3.54,6.41-7.06.95-3.95.83-7.89,0-11.84Z"/><path class="cls-2" d="m200.52,86.7c-.57.41-.36,1.02-.36,1.54-.02,3.44-.03,6.88,0,10.31,0,.89-.17,1.22-1.18,1.38-1.56.25-3.14.06-4.68.46-2.09.54-3.44-.99-4.95-2-1-.67-1.98-1.37-2.93-2.11-.64-.5-.94-.28-1.27.34-3.07,5.77-8.21,7.9-14.41,8.27-6.46.39-11.63-2.46-16.41-6.35-.21-.17-.42-.36-.65-.51-.06-.04-.17,0-.39.02.37,1.52.69,3.04,1.1,4.53.25.9.07,1.23-.93,1.2-1.8-.04-3.59.24-5.37.5-1.02.14-1.93.03-2.84-.7-2.02-1.62-4.17-3.06-6.28-4.57-.38-.28-.77-.53-.8-1.06,2.24-.21,4.49-.42,6.73-.61.71-.06.84-.38.66-1.02-.35-1.24-.62-2.51-.99-3.74-1.37-4.6-3.08-9.03-6.32-12.69,3.87-3.71,4.9-12.24.45-16.01,1.85.24,3.26,1.4,4.76,2.35,1.04.65,2.02,1.39,3.03,2.09.02,6.09.13,12.18.01,18.27-.08,4.02,1.82,6.9,4.85,9.09,3.22,2.32,6.88,3.09,10.88,2.58,4.68-.6,8.84-2.05,11.99-5.79,2.02-2.39,3.24-5.1,3.31-8.2.11-4.65.04-9.3.02-13.95-.02-4.18-.07-8.37-.11-12.55,1.17-.09,1.73.9,2.54,1.45,1.1.75,1.89,1.91,3.17,2.41.25.58.12,1.19.12,1.79,0,9.76.02,19.51-.02,29.27,0,1.1.27,1.48,1.39,1.34,1.91-.25,3.84-.45,5.77-.54.9-.04,1.06-.37,1.05-1.17-.04-3.02.15-6.05-.07-9.06-.17-2.26.62-3.89,2.12-5.42.64-.65.87-.52,1.3.14,1.88,2.92,3.79,5.81,5.69,8.72Z"/><path class="cls-1" d="m149.37,8.32c1.6,4.73,3.2,9.47,4.8,14.2,2.03,5.99,4.05,11.99,6.09,17.98.84,2.46,1.69,4.92,2.59,7.36.36.99.41,1.47-.94,1.55-2.8.16-5.59.55-8.38.84-.64-.03-.75-.45-.9-.99-.18-.64-.23-1.35-.73-1.87-.6-2.1-1.19-4.2-1.8-6.29-.12-.4-.34-.72-.89-.67-3.4.29-6.79.56-10.19.8-.72.05-.61.63-.71,1.01-.73,2.78-1.43,5.56-2.08,8.36-.21.9-.59,1.27-1.57,1.33-2.49.16-4.97.47-7.45.75-.88.1-1.12,0-.82-1,2.15-7.24,4.21-14.5,6.3-21.75.06-.22.09-.44.14-.67,1.7-5.88,3.39-11.75,5.1-17.63.23-.79.52-1.56.75-2.36.12-.42.35-.59.78-.62,2.59-.2,5.17-.45,7.76-.61.71-.04,1.44.18,2.16.28Zm-8.34,23.1c2.14.32,4.03-.47,6.08-.51-1.07-3.62-2.1-7.11-3.18-10.77-1.16,3.83-2.1,7.48-2.9,11.28Z"/><path class="cls-1" d="m222.48,37.07c-2.05-3.2-3.46-6.71-3.84-10.44-.65-6.35-.02-12.56,3.53-18.15.07-.11.05-.27.07-.41C227.83-.02,237.96-1.08,243.95.8c1.87.59,3.37,1.72,4.73,3.08,1.24,1.92,2.63,3.74,3.59,5.84.32.7.27,1.02-.43,1.38-2.15,1.1-4.27,2.23-6.37,3.42-.71.4-1.12.35-1.61-.31-1.03-1.39-2.33-2.52-3.8-3.44-2.89-1.82-6.26-1.48-8.75.87-1.5,1.41-2.4,3.17-2.93,5.13-1.24,4.59-.46,8.99,1.39,13.23.77,1.77,1.92,3.29,3.87,3.96,2.09.82,3.9.12,5.52-1.15,1.97-1.54,3.37-3.55,4.22-5.9.31-.85.68-1.06,1.61-.91,2.12.34,4.26.5,6.39.74.44.05.94-.16,1.29.28-.92,2.94-2.23,5.69-4.06,8.19-3.46,4.72-8.07,7.49-13.9,7.97-3.5.29-6.63-.99-9.46-2.99-.92-1.04-1.84-2.08-2.76-3.11Z"/><path class="cls-1" d="m177.47,57.77c.04,4.18.09,8.37.11,12.55.02,4.65.08,9.3-.02,13.95-.07,3.1-1.29,5.81-3.31,8.2-3.16,3.73-7.31,5.19-11.99,5.79-4,.51-7.66-.26-10.88-2.58-3.03-2.19-4.93-5.07-4.85-9.09.11-6.09,0-12.18-.01-18.27.01-2.23.02-4.45.04-6.68,0-.5-.11-1.04.69-1.09,2.84-.17,5.68-.36,8.52-.55.02,7.48-.09,14.96.11,22.43.12,4.35,4.29,7.79,8.85,5.54,2.54-1.05,3.62-3.18,4.18-5.68.45-2.01.32-4.05.32-6.09,0-5.44.02-10.88-.02-16.32,0-.96.14-1.32,1.27-1.37,2.34-.1,4.67-.47,7-.74Z"/><path class="cls-1" d="m138.71,63.89c4.45,3.78,3.42,12.3-.45,16.01,3.24,3.66,4.95,8.09,6.32,12.69.37,1.24.63,2.5.99,3.74.18.64.04.96-.66,1.02-2.24.19-4.49.4-6.73.61-.85.03-1.05-.49-1.12-1.22-.19-1.88-.58-3.72-1.21-5.5-.39-1.23-.85-2.45-1.57-3.52-1.13-1.67-2.12-3.66-4.69-3.16-.92.18-1.83.26-2.75.24-.95-.03-1.28.31-1.27,1.3.05,3.81-.05,7.63.07,11.44.04,1.34-.54,1.73-1.62,1.75-2.14.04-4.26.29-6.38.56-1.16.15-1.59-.08-1.58-1.41.07-8.28.04-16.55.04-24.83,0-1.76-.04-3.53-.07-5.29.02-1.48.04-2.97.06-4.45,0-.43-.01-.77.62-.84,3.81-.41,7.63-.77,11.45-1.16,3.79-.39,7.26.25,10.57,2.03Zm-14.22,9.08c0,.23,0,.46,0,.7,0,2.81,0,2.86,2.75,2.45,1.78-.26,3.59-.5,5.07-1.68,1.08-.86,1.59-2.45,1.05-3.63-.5-1.11-1.53-1.38-2.67-1.36-1.16.02-2.32-.03-3.47.04-2.73.16-2.73.19-2.73,2.93,0,.19,0,.37,0,.56Z"/><path class="cls-1" d="m79.45,78.08c.02-3.37.03-6.75.06-10.12,0-.58-.16-1.23.79-1.29,2.74-.17,5.49-.38,8.23-.58,0,6.55,0,13.11-.02,19.66,0,1.03.08,2.05.3,3.04.97,4.55,4.62,7.05,8.93,4.67,2.1-.92,3.09-2.71,3.6-4.79.55-2.24.56-4.53.55-6.83-.03-5.33,0-10.66-.03-15.99,0-.87.19-1.19,1.13-1.21,2.34-.05,4.64-.58,7-.49.01,9.05.02,18.11.03,27.16,0,.23-.01.47-.07.69-1.27,4.89-4.14,8.47-8.87,10.34-4.77,1.89-9.64,2.04-14.53.35-.54-.3-1.08-.61-1.63-.91-2.76-1.91-4.5-4.55-5.47-7.73,0-1.59,0-3.19,0-4.78,0-3.74,0-7.47,0-11.21Z"/><path class="cls-1" d="m200.52,86.7c-1.9-2.9-3.81-5.8-5.69-8.72-.42-.65-.66-.79-1.3-.14-1.5,1.53-2.29,3.16-2.12,5.42.22,3,.03,6.04.07,9.06.01.8-.15,1.13-1.05,1.17-1.93.09-3.85.29-5.77.54-1.13.15-1.4-.24-1.39-1.34.04-9.76.03-19.51.02-29.27,0-.59.13-1.21-.12-1.79.02-1.25.03-2.51.05-3.76,0-.42-.02-.95.56-.94,2.59.04,5.14-.53,7.73-.32v11.31c2.02-2.65,3.81-5,5.61-7.35,1.09-1.36,2.34-2.63,3.22-4.12.8-1.37,2.13-1.08,3.12-1.16,2.77-.21,5.51-.65,8.28-.87.47-.04,1.02-.3,1.41.23-.91.97-1.84,1.91-2.69,2.96-3.01,3.69-6.13,7.27-9.21,10.9-.78.92-1.29,1.81-.21,2.94.62.65,1.02,1.51,1.52,2.27,3.54,5.37,7.08,10.74,10.6,16.12.26.4.71.74.59,1.32-1.03.19-2.04.28-3.05.42-1.85.26-3.74.22-5.55.79-.66.14-1-.26-1.33-.75-1.1-1.64-2.22-3.27-3.33-4.9Z"/><path class="cls-1" d="m232.03,79.83c2.23-1.16,3.1-3.2,3.55-5.5.57-2.93.25-5.9.28-8.86.05-4.08.03-8.17,0-12.25,0-.81.15-1.08,1.05-1.11,2.29-.09,4.55-.62,6.85-.55,0,8.18-.08,16.37,0,24.55.03,2.73-.83,5.08-2.35,7.22-3.39,4.78-8.38,6.4-13.91,6.74-2.76.17-5.34-.79-7.83-1.92-2.43-1.79-4.31-4.01-5.26-6.9-.21-.64-.22-1.37-.23-2.06-.04-2.88-.05-5.75-.07-8.63,0-5.29,0-10.59,0-15.88.07-.27.14-.53.5-.56,2.73-.24,5.46-.49,8.19-.72.07,0,.14.1.21.15,0,6.77-.02,13.55-.02,20.32,0,1.03.29,2.02.64,2.97,1.36,3.65,4.89,4.9,8.37,2.99Z"/><path class="cls-2" d="m219.68,88.15c2.49,1.13,5.07,2.1,7.83,1.92,5.52-.34,10.52-1.96,13.91-6.74,1.52-2.14,2.37-4.49,2.35-7.22-.08-8.18-.01-16.37,0-24.55,1.37.99,2.76,1.97,4.12,2.98.41.31.81.61,1.34.67.01.23.03.46.03.69,0,10.22.01,20.44-.02,30.67,0,1.04.16,1.39,1.35,1.35,2.54-.08,5.04-.52,7.58-.63,2.31-.1,4.59-.48,6.9-.62,2.8-.17,5.59-.71,8.41-.74,1.11-.01,1.52-.42,1.49-1.57-.07-2.55,0-5.11.02-7.66,1.95.91,3.32,2.68,5.19,3.64,3.03,1.57,3.95,3.92,3.45,7.14-.17,1.13-.07,2.32-.01,3.48.05.98-.42,1.31-1.31,1.38-4.65.36-9.29.74-13.94,1.13-3.08.26-6.16.55-9.23.83-.63.06-1.16-.13-1.68-.5-1.88-1.35-3.81-2.63-5.68-3.99-.71-.52-1.12-.53-1.67.24-2.99,4.22-7.29,5.91-12.27,6.2-6.56.38-12-2.17-16.72-6.52-.52-.48-1.4-.65-1.44-1.57Z"/><path class="cls-2" d="m86.55,102.7c4.89,1.69,9.76,1.54,14.53-.35,4.73-1.88,7.6-5.45,8.87-10.34.06-.22.07-.46.07-.69,0-9.05-.02-18.11-.03-27.16,1.99.96,3.52,2.56,5.33,3.77.22.15.47.26.7.39.02,1.76.07,3.53.07,5.29,0,8.28.04,16.55-.04,24.83-.01,1.33.42,1.56,1.58,1.41,2.12-.27,4.24-.51,6.38-.56,1.09-.02,1.67-.41,1.62-1.75-.12-3.81-.01-7.62-.07-11.44-.01-.99.32-1.32,1.27-1.3.92.02,1.83-.05,2.75-.24,2.57-.51,3.57,1.49,4.69,3.16.72,1.07,1.18,2.28,1.57,3.52-1.25-.21-1.61.36-1.59,1.56.06,3.76-.02,7.53.05,11.29.02,1.03-.35,1.45-1.27,1.54-1.42.14-2.91.03-4.26.42-3.64,1.06-5.87-1.32-8.34-3.16-2.16-1.61-2.11-1.63-3.59.52-2.8,4.07-6.73,6.13-11.59,6.81-6.81.95-12.27-1.75-17.24-5.97-.54-.46-1.4-.65-1.48-1.55Z"/><path class="cls-2" d="m79.45,94.06c.97,3.18,2.71,5.81,5.47,7.73-.53.44-.31,1.04-.31,1.57-.02,6.05-.12,12.09.05,18.13.06,2.3-1,3.81-2.47,5.16-3.58,3.27-7.87,5.18-12.61,6.08-4.79.91-9.57.81-14.24-.73-4.28-1.4-8.17-3.53-11.37-6.76-.67-.68-1.95-.92-1.76-2.27,2.55,1.64,5.19,3.13,8.25,3.51,8.79,1.08,16.81-.53,23.45-6.86,1.26-1.2,1.85-2.57,1.83-4.43-.09-7.72,0-15.43.02-23.15.57.11.97.49,1.44.8.71.47,1.26,1.29,2.26,1.22Z"/><path class="cls-2" d="m79.45,78.08c0,3.74,0,7.47,0,11.21-1.57.13-2.86.99-4.24,1.62-.91.42-1.64.49-2.54-.18-2.23-1.65-4.56-3.16-6.84-4.75-.32-.23-.62-.35-1.02-.31-3.99.45-7.04,2.48-9.3,5.69-3.81,5.43-3.81,11.53-2.84,17.74.31,2.01,1.23,3.86,1.8,5.81-2.21.23-3.96-.54-5.56-2.1-3.87-3.79-5.27-8.55-5.6-13.74-.25-3.93,0-7.81,1.71-11.48,1.67-3.58,4.07-6.45,7.96-7.55,3.11-.88,6.3-1.2,9.24.83,1.22.84,1.99,1.96,2.25,3.36.15.85.43.85,1.07.57,3.05-1.33,6.11-2.66,9.19-3.94.9-.37.96-.83.59-1.67-1.3-2.99-3.16-5.56-5.59-7.73,2.14.2,3.57,1.75,5.26,2.8,1.26.78,2.21,1.93,3.27,2.95.35.34.61.83,1.19.88Z"/><path class="cls-1" d="m274.99,76.7c-.01,2.55-.08,5.11-.02,7.66.03,1.16-.38,1.56-1.49,1.57-2.82.03-5.61.56-8.41.74-2.31.14-4.6.52-6.9.62-2.54.11-5.04.55-7.58.63-1.19.04-1.36-.32-1.35-1.35.03-10.22.02-20.44.02-30.67,0-.23-.02-.46-.03-.69.01-1.12.01-2.23.04-3.35,0-.33-.16-.78.45-.83,2.7-.24,5.41-.5,8.11-.75.06,0,.14.11.21.17-.02.14-.06.27-.06.41,0,8.64,0,17.29-.03,25.93,0,.93.35,1.09,1.15,1.02,2.59-.22,5.18-.41,7.77-.6,1.93-.28,3.87-.61,5.82-.49.78.05,1.55-.74,2.31-.03Z"/><path class="cls-1" d="m213.32,2.46c.01,13.66.02,27.33.06,40.99,0,.99-.27,1.39-1.31,1.46-2.25.16-4.5.42-6.73.73-1.12.15-1.61.05-1.6-1.33.08-8.97.04-17.94.04-26.91,0-.23-.02-.46-.04-.69.01-4.12.04-8.24.02-12.35,0-.91.09-1.23,1.21-1.39,2.67-.38,5.38-.3,8.04-.73.09-.01.2.15.3.24Z"/><path class="cls-2" d="m214.14,54.67c0,5.29,0,10.59,0,15.88-1.85,1.63-3.16,3.72-4.81,5.52-.48.52.12.86.33,1.19,3.76,5.78,7.54,11.54,11.31,17.31.35.54.68,1.1,1.04,1.64.89,1.36.9,1.45-.66,1.64-2.43.28-4.87.42-7.3.64-.74.07-1.35-.15-1.93-.58-2.09-1.53-4.19-3.04-6.28-4.56-.34-.25-.67-.51-.66-1,1.8-.57,3.7-.52,5.55-.79,1.01-.14,2.02-.23,3.05-.42.12-.58-.33-.93-.59-1.32-3.52-5.38-7.06-10.75-10.6-16.12-.5-.76-.9-1.62-1.52-2.27-1.08-1.13-.58-2.02.21-2.94,3.08-3.63,6.21-7.21,9.21-10.9.85-1.04,1.78-1.98,2.69-2.96.32.01.65.02.97.03Z"/><path class="cls-2" d="m.88,74.76c2.28-.62,4.64-.61,6.96-.8,3.02-.25,3.02-.17,3.02-3.19,0-8.82,0-17.64,0-26.46,0-.49,0-.99.31-1.6,2.92,4.53,5.83,9.05,8.75,13.58-.54.43-.32,1.03-.32,1.56-.01,6.93-.03,13.86.01,20.78,0,.94-.16,1.42-1.23,1.51-2.94.26-5.87.68-8.83.73-1.25.02-2.04-1.01-2.99-1.64-1.66-1.09-3.27-2.27-4.9-3.4-.39-.27-.77-.53-.77-1.08Z"/><path class="cls-2" d="m225.24,40.19c2.84,2,5.96,3.29,9.46,2.99,5.83-.49,10.45-3.26,13.9-7.97,1.83-2.5,3.14-5.24,4.06-8.19,2.23.99,3.82,2.87,5.86,4.13.39.24.74.56,1.1.84,1.9,1.44,2,1.48,1.06,3.76-2.42,5.88-6.16,10.64-12.36,12.78-5.47,1.88-10.78.93-15.78-1.84-2.44-1.35-4.61-3.08-6.55-5.1-.39-.4-.84-.76-.77-1.41Z"/><path class="cls-2" d="m233.65,33.95c-1.95-.67-3.1-2.19-3.87-3.96-1.86-4.25-2.63-8.65-1.39-13.23.53-1.96,1.43-3.72,2.93-5.13,2.5-2.35,5.86-2.69,8.75-.87,1.47.92,2.76,2.05,3.8,3.44.49.66.91.71,1.61.31,2.1-1.19,4.23-2.32,6.37-3.42.7-.36.75-.68.43-1.38-.96-2.1-2.35-3.92-3.59-5.84,1.32.35,2.19,1.38,3.1,2.25,3.09,2.98,6.66,5.52,8.92,9.3.19.32.37.64.56.96.3.52.26.78-.44.91-3.77.7-7.52,1.46-11.28,2.18-.58.11-1.07-.08-1.5-.53-.86-.91-1.77-1.78-2.66-2.67-3.8-3.79-8.72-1.9-10.98,1.47-2.25,3.35-2.4,7.07-1.96,10.94.21,1.82.9,3.49,1.23,5.26Z"/><path class="cls-2" d="m164.71,87.97c-4.55,2.26-8.73-1.18-8.85-5.54-.2-7.47-.09-14.95-.11-22.43.73-.58,1.1.22,1.46.5,2.22,1.74,4.36,3.57,6.55,5.36.7.57.97,1.24.96,2.17-.04,6.65-.02,13.29-.01,19.94Z"/><path class="cls-2" d="m266.86,77.22c-2.59.2-5.18.38-7.77.6-.8.07-1.15-.1-1.15-1.02.04-8.64.03-17.29.03-25.93,0-.14.04-.27.06-.41,2.73,1.98,5.45,3.96,8.18,5.94.66.48.65,1.16.65,1.87,0,6.32,0,12.64,0,18.95Z"/><path class="cls-2" d="m97.74,93.47c-4.32,2.38-7.97-.13-8.93-4.67-.21-.99-.3-2.01-.3-3.04.03-6.55.02-13.11.02-19.66,2.38,1.41,4.39,3.33,6.66,4.89.19.13.36.3.55.42,1.24.74,1.77,1.71,1.74,3.26-.11,5.74-.05,11.49-.03,17.24,0,.53-.21,1.12.29,1.57Z"/><path class="cls-2" d="m232.03,79.83c-3.48,1.91-7.01.66-8.37-2.99-.36-.95-.64-1.94-.64-2.97,0-6.77.01-13.55.02-20.32,1.94.99,3.49,2.53,5.26,3.75.64.44,1.16,1.11,1.85,1.44,1.51.73,1.88,1.83,1.84,3.46-.11,5.14-.07,10.28,0,15.42,0,.73-.66,1.5.04,2.22Z"/><path class="cls-2" d="m29.64,42.94v8.05c-.2-.01-.25-.39-.41-.64-5.91-9.47-11.82-18.95-17.72-28.43-.14-.23-.23-.5-.35-.74,2.22,1.06,3.97,2.81,6.02,4.12,3.8,2.43,5.13,6.68,7.56,10.11,1.73,2.44,3,5.19,4.9,7.52Z"/><path class="cls-2" d="m106.13,30.68c.1,1.63-.73,3.03-1.11,4.55-.25,1.03-.61,2.03-1,3.31-1.78-4.74-3.48-9.23-5.15-13.73-1.42-3.81-2.8-7.64-4.19-11.46,2.13,1.2,3.85,3.05,6.01,4.16,2.87,1.49,3.15,4.16,3.76,6.81.49,2.14.64,4.37,1.69,6.36Z"/><path class="cls-2" d="m197.14,60.56c-1.79,2.35-3.58,4.7-5.61,7.35v-11.31c2.09,1,3.66,2.74,5.61,3.95Z"/><path class="cls-2" d="m64.47,109.09c-.77.12-1.14-.53-1.65-.87-2.01-1.36-4-2.77-5.99-4.17-.29-.2-.69-.33-.7-.79,2.52-.28,5.04-.55,7.55-.85.7-.08.89.19.87.84-.05,1.95-.06,3.89-.08,5.84Z"/><path class="cls-2" d="m182.86,37.09c-1.13.89-2.5.42-3.74.62-1.5.24-3.02.31-4.53.48-.71.08-.97-.14-.97-.9.03-7.07.03-14.14,0-21.2,0-.8.29-1.01,1.04-1.05,2.17-.12,4.34-.31,6.5-.51.77-.07,1.45.06,2.13.45,2.52,1.45,4.1,3.58,4.71,6.42-1.42.13-2.84.1-4.27.28-1.03.13-1.18.5-1.18,1.37.03,4.25,0,8.51.02,12.76,0,.44-.15.94.29,1.29Z"/><path class="cls-2" d="m62.85,49.84c-3.27.99-5.94-.04-7.53-3.01-1.04-1.93-1.61-4.03-1.67-6.23-.1-3.38-.26-6.77.77-10.08.52-1.66,1.23-3.22,2.54-4.4,2.42-2.18,5.37-2.08,8.13-1.24,2.76.83,3.77,3.34,4.17,6.05-2.91.4-4.51,2.27-5.58,4.83-1.07,2.58-1.19,5.31-1.37,8.02-.14,2.03.32,4.04.55,6.06Z"/><path class="cls-2" d="m147.11,30.92c-2.05.04-3.94.82-6.08.51.79-3.8,1.73-7.45,2.9-11.28"/><path class="cls-2" d="m124.49,72.97c0-.19,0-.37,0-.56,0-2.74,0-2.77,2.73-2.93,1.15-.07,2.32-.02,3.47-.04,1.14-.02,2.17.25,2.67,1.36.53,1.18.03,2.77-1.05,3.63-1.48,1.18-3.3,1.42-5.07,1.68-2.74.41-2.75.36-2.75-2.45,0-.23,0-.46,0-.7Z"/></svg>