<svg xmlns="http://www.w3.org/2000/svg" height="40" viewBox="0 -960 960 960" width="40"><path d="M548.666-346.666q16.73 0 29.032-12.302Q590-371.269 590-388q0-16.73-12.302-29.031-12.302-12.302-29.032-12.302t-29.031 12.302Q507.333-404.73 507.333-388q0 16.731 12.302 29.032 12.301 12.302 29.031 12.302ZM522-473.333h51.333q1.333-29 7.667-42.833Q587.333-530 612-554q28-27.333 38.333-46.43 10.333-19.096 10.333-44.903 0-45.588-31.5-74.461-31.5-28.872-82.5-28.872-39 0-69.166 21.333Q447.333-706 434-668.666l47.999 19.999q10.334-25 26.501-37.833 16.166-12.833 38.166-12.833 27.852 0 45.26 15.833 17.407 15.834 17.407 40.834 0 18-8.666 32.166Q592-596.333 570-578.666q-32.334 29-40.167 46.167Q522-515.333 522-473.333Zm-242.001 260q-27 0-46.833-19.833t-19.833-46.833v-533.335q0-27 19.833-46.833T279.999-880h533.335q27 0 46.833 19.833T880-813.334v533.335q0 27-19.833 46.833t-46.833 19.833H279.999Zm0-66.666h533.335v-533.335H279.999v533.335ZM146.666-80q-27 0-46.833-19.833T80-146.666v-600.001h66.666v600.001h600.001V-80H146.666Zm133.333-733.334v533.335-533.335Z"/></svg>